<svg width="194" height="52" viewBox="0 0 194 52" fill="none" xmlns="http://www.w3.org/2000/svg">
<path d="M151.4 13.2991H150.6C145.79 13.2991 141.04 14.5247 136.01 15.819L134.52 16.1916L134.58 22.3297V44.2247H139.44V26.1929L139.58 19.1724L140.27 18.6233C142.422 16.9833 145.109 16.1646 147.83 16.3191C153.2 16.3191 156.95 20.702 156.95 26.9675V44.2247H161.81V25.9674C161.81 15.3091 155.28 13.456 151.4 13.2991Z" fill="#273D8B"/>
<path d="M190.76 16.5643V13.2992H182.83V4.62158H178V33.8117C178 37.8711 178.71 40.4793 180.27 42.0677C181.097 42.8465 182.079 43.4503 183.154 43.8416C184.229 44.2329 185.375 44.4034 186.52 44.3425C187.962 44.3572 189.401 44.2125 190.81 43.9111V41.0382C190.38 41.0382 189.91 41.0382 189.34 41.0382C182.88 41.0382 182.88 34.8511 182.88 32.8214V16.5643H190.76Z" fill="#273D8B"/>
<path d="M116.37 13.2991C113.352 13.2974 110.353 13.7742 107.49 14.711V16.7309C109.868 15.8912 112.373 15.4504 114.9 15.4268C115.458 15.4263 116.016 15.4623 116.57 15.5347C123.71 16.2308 124.27 21.4178 124.27 22.9768V25.4772L122.27 25.4183H121.27C119.84 25.4183 118.15 25.5066 116.51 25.6733C107.92 26.4969 103.57 29.5365 103.57 34.6941C103.57 41.0282 108.89 44.2444 119.39 44.2444H129.09V25.2026C129.14 17.0839 125.08 13.2991 116.37 13.2991ZM124.27 42.7147H122.34C120.255 42.7412 118.171 42.6331 116.1 42.3912C114.1 42.1068 108.1 41.244 108.1 35.1549C108.1 32.9095 109.1 28.9188 116.1 27.5657C118.188 27.1959 120.308 27.0251 122.43 27.0558H124.36L124.27 42.7147Z" fill="#273D8B"/>
<path d="M72 13.2991C70.3445 13.2669 68.6981 13.5465 67.15 14.1228C63.45 15.6622 61.67 18.6724 61.7 23.3299L61.84 44.2738H66.94L66.82 26.5264C66.82 22.5553 66.75 16.5447 74.4 16.4956C75.09 16.4956 75.84 16.4956 76.66 16.6133V13.8286C75.1314 13.484 73.5685 13.3065 72 13.2991Z" fill="#273D8B"/>
<path d="M3.65997 29.184C3.65997 38.5774 9.91998 44.4115 19.99 44.4115C22.1347 44.3962 24.2698 44.1296 26.35 43.6173V40.9895C24.824 41.3006 23.2686 41.4518 21.71 41.4405C14.2 41.4405 8.99997 36.2536 8.99997 28.8408C8.93774 27.1533 9.21967 25.4706 9.82926 23.8912C10.4389 22.3119 11.3638 20.8678 12.55 19.6435C13.7616 18.4919 15.1966 17.5904 16.7701 16.9925C18.3435 16.3946 20.0233 16.1124 21.71 16.1627C23.271 16.1448 24.8287 16.3094 26.35 16.653V13.8487C24.7397 13.5322 23.1022 13.3681 21.46 13.3584C10.81 13.3584 3.65997 19.722 3.65997 29.184Z" fill="#273D8B"/>
<path d="M91.49 27.3696C87.38 25.9675 84 24.5849 84 20.9374C84 17.6526 86.71 15.5347 90.92 15.5347C92.7838 15.5616 94.6271 15.9204 96.36 16.5937V14.5738C94.3479 13.7153 92.1743 13.281 89.98 13.2991C83.39 13.2991 79.3 16.5937 79.3 21.9473C79.18 26.1538 83.8 28.5364 87.7 29.7915C92.21 31.2819 94.82 32.8507 94.82 36.4885C94.82 39.9693 91.97 42.0578 87.21 42.0578C84.6161 41.9609 82.0543 41.4611 79.62 40.5772V43.2247C82.0596 43.9852 84.6003 44.3883 87.16 44.4209C94.96 44.4209 99.62 41.1852 99.62 35.7825C99.54 31.8506 97.11 29.2816 91.49 27.3696Z" fill="#273D8B"/>
<path d="M44.43 13.2991H43.53C33.55 13.7403 29 21.9375 29 29.3698C29 38.1945 34.3 43.7051 43.43 44.362H45.34C48.2996 44.3718 51.2479 44.0026 54.11 43.2638V40.9498C51.6346 41.5083 49.0999 41.775 46.56 41.744C45.3826 41.7371 44.2081 41.6288 43.05 41.4204C37.36 40.283 33.89 36.4688 33.75 31.2132V29.2522H57.65C57.65 28.8011 57.65 28.2716 57.65 27.6637C57.67 24.3103 56.72 13.2991 44.43 13.2991ZM53.18 25.3693V27.2225H33.54L33.78 25.1242C34.26 20.7314 37.06 15.515 43.27 15.3189H43.87C45.0713 15.2738 46.2693 15.4717 47.3892 15.9002C48.5092 16.3286 49.5273 16.9786 50.38 17.8095C52.26 19.8885 53.2613 22.5919 53.18 25.3693Z" fill="#273D8B"/>
<path d="M172.56 13.2991H167.4V44.2247H172.56V13.2991Z" fill="#273D8B"/>
<path d="M170 4.62173C169.661 4.60243 169.322 4.65267 169.004 4.76923C168.686 4.88579 168.396 5.06611 168.154 5.29866C167.911 5.53121 167.72 5.81087 167.594 6.11978C167.468 6.42868 167.408 6.76003 167.42 7.09264C167.461 7.74017 167.752 8.34801 168.234 8.79232C168.717 9.23662 169.353 9.48397 170.015 9.48397C170.677 9.48397 171.313 9.23662 171.796 8.79232C172.278 8.34801 172.569 7.74017 172.61 7.09264C172.619 6.7582 172.557 6.42559 172.428 6.11595C172.299 5.8063 172.105 5.5264 171.86 5.29402C171.614 5.06164 171.322 4.88186 171.002 4.76612C170.682 4.65039 170.341 4.60121 170 4.62173Z" fill="#273D8B"/>
</svg>
