<svg width="296" height="132" viewBox="0 0 296 132" fill="none" xmlns="http://www.w3.org/2000/svg">
<path d="M204.4 50.2991H203.6C198.79 50.2991 194.04 51.5247 189.01 52.819L187.52 53.1916L187.58 59.3297V81.2247H192.44V63.1929L192.58 56.1724L193.27 55.6233C195.422 53.9833 198.109 53.1646 200.83 53.3191C206.2 53.3191 209.95 57.702 209.95 63.9675V81.2247H214.81V62.9674C214.81 52.3091 208.28 50.456 204.4 50.2991Z" fill="#273D8B"/>
<path d="M243.76 53.5643V50.2992H235.83V41.6216H231V70.8117C231 74.8711 231.71 77.4793 233.27 79.0677C234.097 79.8465 235.079 80.4503 236.154 80.8416C237.229 81.2329 238.375 81.4034 239.52 81.3425C240.962 81.3572 242.401 81.2125 243.81 80.9111V78.0382C243.38 78.0382 242.91 78.0382 242.34 78.0382C235.88 78.0382 235.88 71.8511 235.88 69.8214V53.5643H243.76Z" fill="#273D8B"/>
<path d="M169.37 50.2991C166.352 50.2974 163.353 50.7742 160.49 51.711V53.7309C162.868 52.8912 165.373 52.4504 167.9 52.4268C168.458 52.4263 169.016 52.4623 169.57 52.5347C176.71 53.2308 177.27 58.4178 177.27 59.9768V62.4772L175.27 62.4183H174.27C172.84 62.4183 171.15 62.5066 169.51 62.6733C160.92 63.4969 156.57 66.5365 156.57 71.6941C156.57 78.0282 161.89 81.2444 172.39 81.2444H182.09V62.2026C182.14 54.0839 178.08 50.2991 169.37 50.2991ZM177.27 79.7147H175.34C173.255 79.7412 171.171 79.6331 169.1 79.3912C167.1 79.1068 161.1 78.244 161.1 72.1549C161.1 69.9095 162.1 65.9188 169.1 64.5657C171.188 64.1959 173.308 64.0251 175.43 64.0558H177.36L177.27 79.7147Z" fill="#273D8B"/>
<path d="M125 50.2991C123.345 50.2669 121.698 50.5465 120.15 51.1228C116.45 52.6622 114.67 55.6724 114.7 60.3299L114.84 81.2738H119.94L119.82 63.5264C119.82 59.5553 119.75 53.5447 127.4 53.4956C128.09 53.4956 128.84 53.4956 129.66 53.6133V50.8286C128.131 50.484 126.569 50.3065 125 50.2991V50.2991Z" fill="#273D8B"/>
<path d="M56.66 66.184C56.66 75.5774 62.92 81.4115 72.99 81.4115C75.1347 81.3962 77.2698 81.1296 79.35 80.6173V77.9895C77.824 78.3006 76.2686 78.4518 74.71 78.4406C67.2 78.4406 62 73.2536 62 65.8408C61.9377 64.1533 62.2197 62.4706 62.8293 60.8912C63.4389 59.3119 64.3638 57.8678 65.55 56.6435C66.7616 55.4919 68.1966 54.5904 69.7701 53.9925C71.3435 53.3946 73.0233 53.1124 74.71 53.1627C76.271 53.1448 77.8287 53.3094 79.35 53.653V50.8487C77.7397 50.5322 76.1022 50.3681 74.46 50.3584C63.81 50.3584 56.66 56.722 56.66 66.184Z" fill="#273D8B"/>
<path d="M144.49 64.3696C140.38 62.9675 137 61.5849 137 57.9374C137 54.6526 139.71 52.5347 143.92 52.5347C145.784 52.5616 147.627 52.9204 149.36 53.5937V51.5738C147.348 50.7153 145.174 50.281 142.98 50.2991C136.39 50.2991 132.3 53.5937 132.3 58.9473C132.18 63.1538 136.8 65.5364 140.7 66.7915C145.21 68.2819 147.82 69.8507 147.82 73.4885C147.82 76.9693 144.97 79.0578 140.21 79.0578C137.616 78.9609 135.054 78.4611 132.62 77.5772V80.2247C135.06 80.9852 137.6 81.3883 140.16 81.4209C147.96 81.4209 152.62 78.1852 152.62 72.7825C152.54 68.8506 150.11 66.2816 144.49 64.3696Z" fill="#273D8B"/>
<path d="M97.43 50.2991H96.53C86.55 50.7403 82 58.9375 82 66.3698C82 75.1945 87.3 80.7051 96.43 81.362H98.34C101.3 81.3718 104.248 81.0026 107.11 80.2638V77.9498C104.635 78.5083 102.1 78.775 99.56 78.744C98.3826 78.7371 97.2081 78.6288 96.05 78.4204C90.36 77.283 86.89 73.4688 86.75 68.2132V66.2522H110.65C110.65 65.8011 110.65 65.2716 110.65 64.6637C110.67 61.3103 109.72 50.2991 97.43 50.2991ZM106.18 62.3693V64.2225H86.54L86.78 62.1242C87.26 57.7314 90.06 52.515 96.27 52.3189H96.87C98.0713 52.2738 99.2693 52.4717 100.389 52.9002C101.509 53.3286 102.527 53.9786 103.38 54.8095C105.26 56.8885 106.261 59.5919 106.18 62.3693V62.3693Z" fill="#273D8B"/>
<path d="M225.56 50.2991H220.4V81.2247H225.56V50.2991Z" fill="#273D8B"/>
<path d="M223 41.6217C222.661 41.6024 222.322 41.6527 222.004 41.7692C221.686 41.8858 221.396 42.0661 221.154 42.2987C220.911 42.5312 220.72 42.8109 220.594 43.1198C220.468 43.4287 220.408 43.76 220.42 44.0926C220.461 44.7402 220.752 45.348 221.234 45.7923C221.717 46.2366 222.353 46.484 223.015 46.484C223.677 46.484 224.313 46.2366 224.796 45.7923C225.278 45.348 225.569 44.7402 225.61 44.0926C225.619 43.7582 225.557 43.4256 225.428 43.1159C225.299 42.8063 225.105 42.5264 224.86 42.294C224.614 42.0616 224.322 41.8819 224.002 41.7661C223.682 41.6504 223.341 41.6012 223 41.6217V41.6217Z" fill="#273D8B"/>
<rect x="40" y="4" width="65.2656" height="30" rx="3" fill="white"/>
<rect x="40.5" y="4.5" width="64.2656" height="29" rx="2.5" stroke="black" stroke-opacity="0.14902"/>
<path d="M48.4219 22L46.2344 14H47.2188L48.8906 20.5156H48.9688L50.6719 14H51.7656L53.4688 20.5156H53.5469L55.2188 14H56.2031L54.0156 22H53.0156L51.25 15.625H51.1875L49.4219 22H48.4219ZM58.4922 22.1406C58.112 22.1406 57.7669 22.069 57.457 21.9258C57.1471 21.7799 56.901 21.5703 56.7188 21.2969C56.5365 21.0208 56.4453 20.6875 56.4453 20.2969C56.4453 19.9531 56.513 19.6745 56.6484 19.4609C56.7839 19.2448 56.9648 19.0755 57.1914 18.9531C57.418 18.8307 57.668 18.7396 57.9414 18.6797C58.2174 18.6172 58.4948 18.5677 58.7734 18.5313C59.138 18.4844 59.4336 18.4492 59.6602 18.4258C59.8893 18.3997 60.056 18.3568 60.1602 18.2969C60.2669 18.237 60.3203 18.1328 60.3203 17.9844V17.9531C60.3203 17.5677 60.2148 17.2682 60.0039 17.0547C59.7956 16.8411 59.4792 16.7344 59.0547 16.7344C58.6146 16.7344 58.2695 16.8307 58.0195 17.0234C57.7695 17.2161 57.5938 17.4219 57.4922 17.6406L56.6172 17.3281C56.7734 16.9635 56.9818 16.6797 57.2422 16.4766C57.5052 16.2708 57.7917 16.1276 58.1016 16.0469C58.4141 15.9635 58.7214 15.9219 59.0234 15.9219C59.2161 15.9219 59.4375 15.9453 59.6875 15.9922C59.9401 16.0365 60.1836 16.1289 60.418 16.2695C60.6549 16.4102 60.8516 16.6224 61.0078 16.9062C61.1641 17.1901 61.2422 17.5703 61.2422 18.0469V22H60.3203V21.1875H60.2734C60.2109 21.3177 60.1068 21.457 59.9609 21.6055C59.8151 21.7539 59.6211 21.8802 59.3789 21.9844C59.1367 22.0885 58.8411 22.1406 58.4922 22.1406ZM58.6328 21.3125C58.9974 21.3125 59.3047 21.2409 59.5547 21.0977C59.8073 20.9544 59.9974 20.7695 60.125 20.543C60.2552 20.3164 60.3203 20.0781 60.3203 19.8281V18.9844C60.2813 19.0312 60.1953 19.0742 60.0625 19.1133C59.9323 19.1497 59.7812 19.1823 59.6094 19.2109C59.4401 19.237 59.2747 19.2604 59.1133 19.2812C58.9544 19.2995 58.8255 19.3151 58.7266 19.3281C58.487 19.3594 58.263 19.4102 58.0547 19.4805C57.849 19.5482 57.6823 19.651 57.5547 19.7891C57.4297 19.9245 57.3672 20.1094 57.3672 20.3437C57.3672 20.6641 57.4857 20.9062 57.7227 21.0703C57.9622 21.2318 58.2656 21.3125 58.6328 21.3125ZM62.9248 22V16H63.8154V16.9062H63.8779C63.9873 16.6094 64.1852 16.3685 64.4717 16.1836C64.7581 15.9987 65.0811 15.9062 65.4404 15.9062C65.5081 15.9062 65.5928 15.9076 65.6943 15.9102C65.7959 15.9128 65.8727 15.9167 65.9248 15.9219V16.8594C65.8936 16.8516 65.8219 16.8398 65.71 16.8242C65.6006 16.806 65.4847 16.7969 65.3623 16.7969C65.0706 16.7969 64.8102 16.8581 64.5811 16.9805C64.3545 17.1003 64.1748 17.2669 64.042 17.4805C63.9118 17.6914 63.8467 17.9323 63.8467 18.2031V22H62.9248ZM71.2676 17.3437L70.4395 17.5781C70.3874 17.4401 70.3105 17.306 70.209 17.1758C70.11 17.043 69.9746 16.9336 69.8027 16.8477C69.6309 16.7617 69.4108 16.7187 69.1426 16.7187C68.7754 16.7187 68.4694 16.8034 68.2246 16.9727C67.9824 17.1393 67.8613 17.3516 67.8613 17.6094C67.8613 17.8385 67.9447 18.0195 68.1113 18.1523C68.278 18.2852 68.5384 18.3958 68.8926 18.4844L69.7832 18.7031C70.3197 18.8333 70.7194 19.0326 70.9824 19.3008C71.2454 19.5664 71.377 19.9089 71.377 20.3281C71.377 20.6719 71.278 20.9792 71.0801 21.25C70.8848 21.5208 70.6113 21.7344 70.2598 21.8906C69.9082 22.0469 69.4993 22.125 69.0332 22.125C68.4212 22.125 67.9147 21.9922 67.5137 21.7266C67.1126 21.4609 66.8587 21.0729 66.752 20.5625L67.627 20.3437C67.7103 20.6667 67.8678 20.9089 68.0996 21.0703C68.334 21.2318 68.64 21.3125 69.0176 21.3125C69.4473 21.3125 69.7884 21.2214 70.041 21.0391C70.2962 20.8542 70.4238 20.6328 70.4238 20.375C70.4238 20.1667 70.3509 19.9922 70.2051 19.8516C70.0592 19.7083 69.8353 19.6016 69.5332 19.5312L68.5332 19.2969C67.9837 19.1667 67.5801 18.9648 67.3223 18.6914C67.0671 18.4154 66.9395 18.0703 66.9395 17.6562C66.9395 17.3177 67.0345 17.0182 67.2246 16.7578C67.4173 16.4974 67.679 16.293 68.0098 16.1445C68.3431 15.9961 68.7207 15.9219 69.1426 15.9219C69.7363 15.9219 70.2025 16.0521 70.541 16.3125C70.8822 16.5729 71.1243 16.9167 71.2676 17.3437ZM75.374 16V16.7812H72.2646V16H75.374ZM73.1709 14.5625H74.0928V20.2812C74.0928 20.5417 74.1305 20.737 74.2061 20.8672C74.2842 20.9948 74.3831 21.0807 74.5029 21.125C74.6253 21.1667 74.7542 21.1875 74.8896 21.1875C74.9912 21.1875 75.0745 21.1823 75.1396 21.1719C75.2048 21.1589 75.2568 21.1484 75.2959 21.1406L75.4834 21.9687C75.4209 21.9922 75.3337 22.0156 75.2217 22.0391C75.1097 22.0651 74.9678 22.0781 74.7959 22.0781C74.5355 22.0781 74.2803 22.0221 74.0303 21.9102C73.7829 21.7982 73.5771 21.6276 73.4131 21.3984C73.2516 21.1693 73.1709 20.8802 73.1709 20.5312V14.5625ZM78.1201 22L76.292 16H77.2607L78.5576 20.5938H78.6201L79.9014 16H80.8857L82.1514 20.5781H82.2139L83.5107 16H84.4795L82.6514 22H81.7451L80.4326 17.3906H80.3389L79.0264 22H78.1201ZM87.4639 22.1406C87.0837 22.1406 86.7386 22.069 86.4287 21.9258C86.1188 21.7799 85.8727 21.5703 85.6904 21.2969C85.5081 21.0208 85.417 20.6875 85.417 20.2969C85.417 19.9531 85.4847 19.6745 85.6201 19.4609C85.7555 19.2448 85.9365 19.0755 86.1631 18.9531C86.3896 18.8307 86.6396 18.7396 86.9131 18.6797C87.1891 18.6172 87.4665 18.5677 87.7451 18.5313C88.1097 18.4844 88.4053 18.4492 88.6318 18.4258C88.861 18.3997 89.0277 18.3568 89.1318 18.2969C89.2386 18.237 89.292 18.1328 89.292 17.9844V17.9531C89.292 17.5677 89.1865 17.2682 88.9756 17.0547C88.7673 16.8411 88.4508 16.7344 88.0264 16.7344C87.5863 16.7344 87.2412 16.8307 86.9912 17.0234C86.7412 17.2161 86.5654 17.4219 86.4639 17.6406L85.5889 17.3281C85.7451 16.9635 85.9535 16.6797 86.2139 16.4766C86.4769 16.2708 86.7633 16.1276 87.0732 16.0469C87.3857 15.9635 87.693 15.9219 87.9951 15.9219C88.1878 15.9219 88.4092 15.9453 88.6592 15.9922C88.9118 16.0365 89.1553 16.1289 89.3896 16.2695C89.6266 16.4102 89.8232 16.6224 89.9795 16.9062C90.1357 17.1901 90.2139 17.5703 90.2139 18.0469V22H89.292V21.1875H89.2451C89.1826 21.3177 89.0785 21.457 88.9326 21.6055C88.7868 21.7539 88.5928 21.8802 88.3506 21.9844C88.1084 22.0885 87.8128 22.1406 87.4639 22.1406ZM87.6045 21.3125C87.9691 21.3125 88.2764 21.2409 88.5264 21.0977C88.779 20.9544 88.9691 20.7695 89.0967 20.543C89.2269 20.3164 89.292 20.0781 89.292 19.8281V18.9844C89.2529 19.0312 89.167 19.0742 89.0342 19.1133C88.904 19.1497 88.7529 19.1823 88.5811 19.2109C88.4118 19.237 88.2464 19.2604 88.085 19.2812C87.9261 19.2995 87.7972 19.3151 87.6982 19.3281C87.4587 19.3594 87.2347 19.4102 87.0264 19.4805C86.8206 19.5482 86.654 19.651 86.5264 19.7891C86.4014 19.9245 86.3389 20.1094 86.3389 20.3437C86.3389 20.6641 86.4574 20.9062 86.6943 21.0703C86.9339 21.2318 87.2373 21.3125 87.6045 21.3125ZM97.7871 14V22H96.8184V15.0156H96.7715L94.8184 16.3125V15.3281L96.8184 14H97.7871Z" fill="black"/>
</svg>
